<?xml version="1.0" encoding="iso-8859-1"?>
<!-- Generator: Adobe Illustrator 16.0.0, SVG Export Plug-In . SVG Version: 6.00 Build 0)  -->
<!DOCTYPE svg PUBLIC "-//W3C//DTD SVG 1.1//EN" "http://www.w3.org/Graphics/SVG/1.1/DTD/svg11.dtd">
<svg version="1.1" id="Layer_1" xmlns="http://www.w3.org/2000/svg" xmlns:xlink="http://www.w3.org/1999/xlink" x="0px" y="0px"
	 width="150px" height="150px" viewBox="0 0 150 150" style="enable-background:new 0 0 150 150;" xml:space="preserve">
<path style="fill:#2BA8E0;" d="M61.21,69.318c-3.038-0.193-6.104-0.193-9.141,0.003c-0.698,0.045-1.325,1.155-1.986,1.775
	c0.65,0.632,1.225,1.667,1.968,1.809c1.511,0.284,3.112,0.084,4.677,0.085c1.486,0,3.022,0.226,4.44-0.087
	c0.813-0.181,1.434-1.236,2.14-1.896C62.61,70.417,61.94,69.365,61.21,69.318"/>
<path style="fill:#2BA8E0;" d="M98.931,69.32c-1.431-0.286-2.955-0.082-4.442-0.084c-1.563,0-3.162-0.191-4.679,0.08
	c-0.769,0.137-1.384,1.111-2.069,1.707c0.627,0.653,1.22,1.829,1.885,1.871c3.119,0.202,6.261,0.203,9.375,0.005
	c0.693-0.043,1.314-1.183,1.967-1.82C100.291,70.467,99.697,69.473,98.931,69.32"/>
<path style="fill:#2BA8E0;" d="M75.548,7.182c-37.967,0-68.746,30.78-68.746,68.747c0,37.969,30.779,68.747,68.746,68.747
	c37.969,0,68.749-30.778,68.749-68.747C144.297,37.962,113.518,7.182,75.548,7.182 M95.14,99.192H55.896v-5.359H95.14V99.192z
	 M55.905,84.46h39.326v5.358H55.905V84.46z M95.237,108.619H55.933v-5.382h39.305V108.619z M115.105,108.589H99.067V80.655H52.132
	v27.964h-16.11v-1.863c0-13.1,0.02-26.199-0.029-39.299c-0.008-1.415,0.371-2.241,1.656-2.967
	c12.14-6.865,24.248-13.787,36.333-20.751c1.167-0.673,2.016-0.66,3.175,0.008c12.087,6.962,24.216,13.846,36.292,20.823
	c0.731,0.423,1.581,1.445,1.586,2.195C115.131,80.646,115.105,94.525,115.105,108.589"/>
</svg>
