<?xml version="1.0" encoding="iso-8859-1"?>
<!-- Generator: Adobe Illustrator 16.0.0, SVG Export Plug-In . SVG Version: 6.00 Build 0)  -->
<!DOCTYPE svg PUBLIC "-//W3C//DTD SVG 1.1//EN" "http://www.w3.org/Graphics/SVG/1.1/DTD/svg11.dtd">
<svg version="1.1" id="Layer_1" xmlns="http://www.w3.org/2000/svg" xmlns:xlink="http://www.w3.org/1999/xlink" x="0px" y="0px"
	 width="150px" height="150px" viewBox="0 0 150 150" style="enable-background:new 0 0 150 150;" xml:space="preserve">
<path style="fill:#FFFFFF;" d="M72.368,83.604c9.752,9.747,19.775,19.765,29.857,29.839H42.527
	C52.396,103.573,62.436,93.536,72.368,83.604"/>
<path style="fill:#FFFFFF;" d="M92.572,62.25c-3.284-0.028-5.854-2.661-5.881-5.964c-0.028-3.374,2.659-5.789,5.902-5.928
	c3.012-0.13,6.048,2.865,6,5.901C98.537,59.889,95.813,62.314,92.572,62.25"/>
<path style="fill:#2BA8E0;" d="M143.601,76.17c0,37.695-30.561,68.258-68.256,68.258c-37.697,0-68.255-30.563-68.255-68.258
	c0-37.697,30.558-68.256,68.255-68.256C113.04,7.914,143.601,38.473,143.601,76.17"/>
<path style="fill:#FFFFFF;" d="M32.656,87.637v-8.534c0.13-0.091,0.359-0.166,0.375-0.272c1.318-9.14,10.114-16.319,18.389-16.966
	c6.449-11.01,15.957-15.833,28.391-13.813c11.889,1.933,19.046,9.413,21.942,20.942c7.785,0.425,15.438,6.839,16.212,16.258
	c0.868,10.585-6.676,19.376-17.622,19.438c-15.643,0.088-31.284,0.037-46.927,0.016c-5.606-0.008-10.322-2.183-14.437-5.938
	C35.641,95.719,34.163,91.686,32.656,87.637 M75.129,96.17c5.373-5.368,10.759-10.756,16.195-16.188h-9.556V66.205H68.211v13.99
	h-9.069C64.632,85.682,70.036,91.082,75.129,96.17"/>
</svg>
