<?xml version="1.0" encoding="iso-8859-1"?>
<!-- Generator: Adobe Illustrator 16.0.0, SVG Export Plug-In . SVG Version: 6.00 Build 0)  -->
<!DOCTYPE svg PUBLIC "-//W3C//DTD SVG 1.1//EN" "http://www.w3.org/Graphics/SVG/1.1/DTD/svg11.dtd">
<svg version="1.1" id="Layer_1" xmlns="http://www.w3.org/2000/svg" xmlns:xlink="http://www.w3.org/1999/xlink" x="0px" y="0px"
	 width="150px" height="150px" viewBox="0 0 150 150" style="enable-background:new 0 0 150 150;" xml:space="preserve">
<path style="fill:#2BA8E0;" d="M143.961,75.75c0,37.895-30.722,68.616-68.616,68.616c-37.896,0-68.616-30.721-68.616-68.616
	c0-37.896,30.719-68.617,68.616-68.617C113.239,7.133,143.961,37.854,143.961,75.75"/>
<path style="fill:#FFFFFF;" d="M38.681,110.268V47.731c1.18-0.371,2.36-1.058,3.544-1.066c10.898-0.084,21.796-0.058,32.695-0.035
	c1.038,0.002,1.703-0.199,2.428-1.143c1.102-1.439,2.639-2.548,3.99-3.797c2.358-2.175,5.472-2.622,8.337-3.637h5.956
	c0.188,0.12,0.36,0.314,0.563,0.351c5.853,1.085,10.371,4.175,13.149,9.402c1.267,2.38,1.801,5.148,2.666,7.742v3.723
	c-0.097,0.066-0.272,0.126-0.279,0.201c-0.411,4.52-2.359,8.346-5.146,11.854c-0.58,0.729-0.86,1.888-0.864,2.85
	c-0.059,11.342-0.039,22.684-0.039,34.023v1.713C95.629,99.857,85.562,89.788,75.349,79.574c1.633-1.53,3.572-3.344,5.62-5.261
	c-0.873-1.152-1.625-2.143-2.454-3.239c-0.559,0.527-1.053,0.974-1.525,1.446c-12.184,12.18-24.362,24.365-36.561,36.534
	C39.935,109.545,39.268,109.866,38.681,110.268 M93.02,87.523c0.449-2.399,0.69-4.147,1.109-5.85
	c1.241-5.043,4.773-8.676,7.868-12.571c3.291-4.142,5.797-8.504,4.818-14.141c-1.357-7.819-9.276-13.5-17.141-11.727
	c-8.171,1.842-13.501,10.509-10.773,18.476c1.224,3.574,3.574,6.472,5.967,9.326c3.724,4.438,6.877,9.14,7.082,15.229
	C91.966,86.642,92.553,86.995,93.02,87.523 M63.812,55.872c-5.127-3.641-10.096-2.807-13.819,0.459
	c-4.197,3.683-4.464,9.518-2.146,13.34c2.58,4.254,7.719,7.071,13.724,4.491c4.233-1.82,7.271-6.746,6.314-11.794H57.432v3.967h6.27
	c-0.439,3.102-2.886,4.794-6.681,4.866c-3.383,0.064-5.379-1.723-6.467-4.677c-0.947-2.569-0.271-4.897,1.437-6.984
	c2.006-2.449,4.818-2.655,7.392-1.884c1.653,0.497,2.462,0.634,3.264-0.91C62.826,56.399,63.329,56.22,63.812,55.872"/>
<path style="fill:#FFFFFF;" d="M72.368,83.604c9.752,9.747,19.775,19.765,29.857,29.839H42.527
	C52.396,103.573,62.436,93.536,72.368,83.604"/>
<path style="fill:#FFFFFF;" d="M92.572,62.25c-3.284-0.028-5.854-2.661-5.881-5.964c-0.028-3.374,2.659-5.789,5.902-5.928
	c3.012-0.13,6.048,2.865,6,5.901C98.537,59.889,95.813,62.314,92.572,62.25"/>
</svg>
