<?xml version="1.0" encoding="iso-8859-1"?>
<!-- Generator: Adobe Illustrator 16.0.0, SVG Export Plug-In . SVG Version: 6.00 Build 0)  -->
<!DOCTYPE svg PUBLIC "-//W3C//DTD SVG 1.1//EN" "http://www.w3.org/Graphics/SVG/1.1/DTD/svg11.dtd">
<svg version="1.1" id="Layer_1" xmlns="http://www.w3.org/2000/svg" xmlns:xlink="http://www.w3.org/1999/xlink" x="0px" y="0px"
	 width="150px" height="150px" viewBox="0 0 150 150" style="enable-background:new 0 0 150 150;" xml:space="preserve">
<path style="fill:#2BA8E0;" d="M75.76,7.283c-37.969,0-68.748,30.777-68.748,68.746c0,37.968,30.779,68.746,68.748,68.746
	c37.967,0,68.746-30.778,68.746-68.746C144.506,38.061,113.727,7.283,75.76,7.283 M31.285,86.49
	c-4.434-2.502-8.955-4.85-13.443-7.257v-1.735c3.155-5.585,6.326-11.162,9.459-16.759c1.82-3.255,1.793-3.269,5.12-1.462
	c3.466,1.885,6.901,3.827,10.412,5.625c1.751,0.899,2.114,1.842,1.103,3.632c-3.172,5.609-6.25,11.277-9.26,16.978
	C33.791,87.188,32.928,87.416,31.285,86.49 M50.742,98.545c-1.221-0.284-2.24-1.434-2.862-1.862
	c-0.085-3.339,1.393-5.328,3.276-5.292c1.943,0.037,3.002,1.172,3.051,3.067C54.263,96.689,52.462,98.947,50.742,98.545
	 M57.383,102.294c-1.908-0.051-3.049-1.146-3.057-3.101c-0.016-3.106,2.214-6.813,4.09-6.465c1.285,0.239,2.377,1.522,3.098,2.021
	C61.481,98.797,59.314,102.347,57.383,102.294 M62.6,105.77c-0.898-0.379-1.914-2.13-1.742-3.07
	c0.443-2.417,1.289-4.843,2.455-7.004c0.45-0.834,2.262-1.425,3.34-1.278c0.908,0.122,1.654,1.469,2.49,2.293
	c-1.122,3.026-1.877,5.727-3.166,8.142C65.572,105.606,63.488,106.145,62.6,105.77 M69.014,109.364
	c-0.891-0.409-1.834-2.155-1.666-3.131c0.398-2.329,1.207-4.674,2.326-6.758c0.476-0.889,2.21-1.675,3.239-1.532
	c0.98,0.135,1.786,1.538,2.698,2.412c-1.146,3.064-1.91,5.765-3.209,8.178C72.006,109.269,69.885,109.763,69.014,109.364
	 M79.089,108.793c-0.437,0.739-2.12,1.129-3.175,1.008c-1.176-0.135-2.342-0.904-1.568-2.632c0.609-1.359,1.008-2.813,1.611-4.546
	c1.209,1.002,2.501,1.606,2.995,2.605C79.454,106.242,79.611,107.906,79.089,108.793 M102.57,98.986
	c-1.518,1.818-3.171,1.222-4.799-0.07c-5.809-4.611-11.643-9.192-17.488-13.755c-0.74-0.579-1.617-0.984-2.432-1.471
	c-0.174,0.239-0.35,0.478-0.525,0.717c0.645,0.599,1.253,1.243,1.941,1.789c4.756,3.768,9.518,7.53,14.303,11.261
	c1.652,1.287,3.037,2.746,1.511,4.816c-1.64,2.226-3.458,1.267-5.21-0.132c-4.746-3.78-9.525-7.521-14.308-11.257
	c-0.69-0.539-1.471-0.965-2.21-1.444c-0.201,0.241-0.404,0.482-0.607,0.723c0.597,0.595,1.145,1.25,1.799,1.772
	c3.831,3.074,7.666,6.147,11.545,9.159c1.76,1.366,2.704,2.952,1.123,4.875c-1.513,1.841-3.3,1.196-4.787-0.189
	c-2.386-2.226-4.914-4.124-6.962-6.934c-2.046-2.806-6.36-4.03-9.805-5.686c-0.692-0.333-1.945,0.501-3.149,0.86
	c-2.6-2.994-3.588-3.169-7.164-1.253c-3.195-3.461-5.041-3.45-8.343,0.224c-3.328-1.917-6.696-3.856-10.242-5.896
	c3.388-6.096,6.571-11.909,9.888-17.645c0.316-0.545,1.756-1.073,2.204-0.811c3.597,2.121,6.989,1.078,10.503-0.204
	c2.571-0.938,5.264-1.544,7.901-2.297c0.12,0.233,0.239,0.467,0.36,0.702c-0.392,0.442-0.721,0.969-1.184,1.314
	c-2.396,1.778-4.994,3.33-7.176,5.339c-1.104,1.016-2.27,3.025-1.971,4.23c0.361,1.452,2.047,3.014,3.531,3.618
	c1.313,0.535,3.246,0.13,4.709-0.4c3.611-1.313,7.069-3.048,10.681-4.357c0.944-0.344,2.522-0.148,3.308,0.455
	c7.416,5.683,14.719,11.513,22.062,17.288C103.223,95.623,104.104,97.149,102.57,98.986 M105.338,93.746
	c-0.603,0.384-2.164-0.092-2.898-0.665c-7.291-5.674-14.537-11.405-21.699-17.24c-1.636-1.331-2.994-1.608-4.928-0.696
	c-3.557,1.683-7.188,3.243-10.893,4.575c-1.321,0.476-3.093,0.564-4.385,0.087c-2.746-1.013-2.918-3.493-0.584-5.283
	c6.193-4.749,12.477-9.375,20.396-10.808c1.47-0.266,3.21-0.155,4.581,0.396c3.206,1.282,6.337,2.803,9.354,4.482
	c2.465,1.372,4.766,1.85,7.293,0.317c1.77-1.076,2.815-0.503,3.793,1.362c2.932,5.6,6.086,11.083,9.276,16.835
	C111.438,89.44,108.48,91.74,105.338,93.746 M119.882,86.62c-1.593,0.905-2.37,0.393-3.149-1.07
	c-3.07-5.765-6.191-11.503-9.367-17.21c-0.818-1.47-0.774-2.381,0.844-3.225c4.088-2.134,8.117-4.374,12.147-6.614
	c1.167-0.649,2.055-0.849,2.825,0.585c3.271,6.092,6.603,12.154,9.906,18.229c0.181,0.333,0.314,0.692,0.588,1.299
	c-0.549,0.442-1.061,0.985-1.681,1.332C127.965,82.187,123.887,84.339,119.882,86.62"/>
</svg>
