<?xml version="1.0" encoding="iso-8859-1"?>
<!-- Generator: Adobe Illustrator 16.0.0, SVG Export Plug-In . SVG Version: 6.00 Build 0)  -->
<!DOCTYPE svg PUBLIC "-//W3C//DTD SVG 1.1//EN" "http://www.w3.org/Graphics/SVG/1.1/DTD/svg11.dtd">
<svg version="1.1" id="Layer_1" xmlns="http://www.w3.org/2000/svg" xmlns:xlink="http://www.w3.org/1999/xlink" x="0px" y="0px"
	 width="150px" height="150px" viewBox="0 0 150 150" style="enable-background:new 0 0 150 150;" xml:space="preserve">
<path style="fill:#FFFFFF;" d="M74.999,6.091c-37.967,0-68.746,30.78-68.746,68.747c0,37.968,30.779,68.747,68.746,68.747
	c37.969,0,68.748-30.779,68.748-68.747C143.747,36.871,112.968,6.091,74.999,6.091 M95.941,62.48
	c-1.193,4.885-2.806,9.641-4.679,14.295c-2.245,5.578-4.607,11.111-7.012,16.623c-1.811,4.151-3.762,8.24-5.658,12.354
	c-0.68,1.474-1.375,2.939-2.08,4.404c-0.478,0.996-0.984,1.98-1.536,3.089c-1.306-2.725-2.55-5.311-3.785-7.9
	c-0.754-1.58-1.521-3.154-2.243-4.749c-1.676-3.702-3.344-7.406-4.981-11.125c-1.043-2.366-2.06-4.745-3.021-7.146
	c-1.306-3.257-2.588-6.522-3.796-9.814c-1.325-3.606-2.535-7.254-3.269-11.039c-0.111-0.577-0.277-1.144-0.418-1.715v-4.101
	c0.057-0.096,0.152-0.188,0.162-0.288c0.219-2.281,0.863-4.452,1.828-6.513c1.462-3.125,3.565-5.766,6.299-7.891
	c2.703-2.1,5.719-3.501,9.095-4.116c0.619-0.11,1.228-0.278,1.841-0.418h4.613c0.075,0.055,0.143,0.144,0.227,0.162
	c1.57,0.366,3.174,0.624,4.709,1.103c3.039,0.949,5.65,2.683,7.866,4.929c1.237,1.253,2.315,2.694,3.288,4.169
	c1.844,2.792,2.764,5.947,3.069,9.253C96.661,58.203,96.458,60.363,95.941,62.48"/>
<path style="fill:#FFFFFF;" d="M75.038,48.436c-5.347,0.004-9.393,4.256-9.557,9.119c-0.193,5.701,4.241,9.842,9.316,9.92
	c5.622,0.085,9.567-4.324,9.723-9.203C84.698,52.732,80.142,48.412,75.038,48.436"/>
</svg>
