<?xml version="1.0" encoding="iso-8859-1"?>
<!-- Generator: Adobe Illustrator 16.0.0, SVG Export Plug-In . SVG Version: 6.00 Build 0)  -->
<!DOCTYPE svg PUBLIC "-//W3C//DTD SVG 1.1//EN" "http://www.w3.org/Graphics/SVG/1.1/DTD/svg11.dtd">
<svg version="1.1" id="Layer_1" xmlns="http://www.w3.org/2000/svg" xmlns:xlink="http://www.w3.org/1999/xlink" x="0px" y="0px"
	 width="150px" height="150px" viewBox="0 0 150 150" style="enable-background:new 0 0 150 150;" xml:space="preserve">
<path style="fill:#FCEE21;" d="M110.729,11.958c1.038,0.233,2.087,0.446,3.119,0.709c7.37,1.895,12.657,6.358,15.62,13.311
	c2.685,6.291,2.499,12.678-0.466,18.898c-2.449,5.144-6.331,8.919-11.557,11.087c-7.2,2.983-14.275,2.497-21.017-1.54
	c-2.236-1.34-4.142-3.071-5.769-5.099c-0.405-0.508-0.719-0.62-1.319-0.309c-9.504,4.891-19.016,9.763-28.525,14.635
	c-2.921,1.498-5.838,3.001-8.782,4.453c-0.651,0.32-0.783,0.672-0.59,1.327c0.771,2.636,1.116,5.315,0.671,8.051
	c-0.141,0.862-0.304,1.72-0.538,2.554c-0.172,0.636-0.027,0.967,0.572,1.275c5.14,2.596,10.266,5.226,15.395,7.85
	c6.295,3.212,12.588,6.433,18.882,9.648c1.075,0.549,2.173,1.049,3.222,1.642c0.578,0.327,0.929,0.259,1.355-0.244
	c2.913-3.435,6.511-5.844,10.834-7.148c4.462-1.35,8.938-1.317,13.372,0.054c5.032,1.56,9.084,4.559,12.064,8.891
	c3.258,4.751,4.599,10.067,3.811,15.766c-1.271,9.205-6.337,15.67-15.062,18.792c-8.533,3.053-16.411,1.351-23.175-4.737
	c-5.24-4.723-7.584-10.765-7.388-17.771c0.041-1.523,0.467-3.039,0.801-4.541c0.151-0.693,0.074-1.038-0.634-1.4
	c-8.268-4.202-16.513-8.458-24.77-12.686c-4.174-2.141-8.368-4.237-12.528-6.406c-0.755-0.394-1.021,0.042-1.381,0.48
	c-3.185,3.885-7.195,6.569-12.083,7.668c-9.312,2.097-17.285-0.463-23.328-7.84c-5.374-6.56-6.517-14.148-3.709-22.146
	c2.516-7.179,7.606-11.986,14.847-14.136c8.193-2.437,15.635-0.667,22.052,5.072c0.696,0.622,1.381,1.282,1.953,2.017
	c0.454,0.583,0.83,0.602,1.436,0.29c3.896-2.014,7.807-4.003,11.716-5.999c6.887-3.523,13.775-7.043,20.662-10.566
	c1.669-0.855,3.318-1.758,5.009-2.565c0.702-0.335,0.786-0.753,0.605-1.431c-1.402-5.235-0.681-10.275,1.703-15.046
	c3.407-6.818,8.953-10.936,16.429-12.455c0.62-0.127,1.237-0.268,1.858-0.401H110.729z"/>
</svg>
