<?xml version="1.0" encoding="iso-8859-1"?>
<!-- Generator: Adobe Illustrator 16.0.0, SVG Export Plug-In . SVG Version: 6.00 Build 0)  -->
<!DOCTYPE svg PUBLIC "-//W3C//DTD SVG 1.1//EN" "http://www.w3.org/Graphics/SVG/1.1/DTD/svg11.dtd">
<svg version="1.1" id="Layer_1" xmlns="http://www.w3.org/2000/svg" xmlns:xlink="http://www.w3.org/1999/xlink" x="0px" y="0px"
	 width="150px" height="150px" viewBox="0 0 150 150" style="enable-background:new 0 0 150 150;" xml:space="preserve">
<path style="fill:#FFFFFF;" d="M60.984,68.505c-3.038-0.193-6.104-0.193-9.141,0.003c-0.698,0.045-1.325,1.156-1.986,1.775
	c0.65,0.632,1.225,1.668,1.968,1.809c1.511,0.284,3.112,0.084,4.676,0.085c1.487,0,3.023,0.226,4.441-0.088
	c0.813-0.179,1.434-1.235,2.14-1.896C62.384,69.604,61.714,68.552,60.984,68.505"/>
<path style="fill:#FFFFFF;" d="M98.705,68.507c-1.43-0.286-2.955-0.082-4.443-0.084c-1.563,0-3.16-0.191-4.678,0.08
	c-0.768,0.138-1.384,1.111-2.068,1.707c0.627,0.653,1.219,1.829,1.885,1.871c3.117,0.202,6.26,0.203,9.375,0.005
	c0.692-0.043,1.313-1.183,1.966-1.82C100.066,69.653,99.471,68.659,98.705,68.507"/>
<path style="fill:#FFFFFF;" d="M75.323,6.369c-37.966,0-68.746,30.779-68.746,68.746c0,37.969,30.78,68.747,68.746,68.747
	c37.969,0,68.748-30.778,68.748-68.747C144.07,37.148,113.292,6.369,75.323,6.369 M94.914,98.38H55.671v-5.359h39.243V98.38z
	 M55.68,83.646h39.326v5.358H55.68V83.646z M95.012,107.806H55.707v-5.382h39.305V107.806z M114.88,107.775H98.842V79.842H51.907
	v27.964h-16.11v-1.863c0-13.1,0.02-26.198-0.029-39.299c-0.008-1.415,0.371-2.241,1.656-2.967
	c12.14-6.865,24.248-13.787,36.333-20.751c1.167-0.673,2.016-0.66,3.175,0.008c12.086,6.962,24.217,13.846,36.292,20.823
	c0.731,0.423,1.581,1.446,1.587,2.196C114.904,79.832,114.88,93.713,114.88,107.775"/>
</svg>
