<?xml version="1.0" encoding="iso-8859-1"?>
<!-- Generator: Adobe Illustrator 16.0.0, SVG Export Plug-In . SVG Version: 6.00 Build 0)  -->
<!DOCTYPE svg PUBLIC "-//W3C//DTD SVG 1.1//EN" "http://www.w3.org/Graphics/SVG/1.1/DTD/svg11.dtd">
<svg version="1.1" id="Layer_1" xmlns="http://www.w3.org/2000/svg" xmlns:xlink="http://www.w3.org/1999/xlink" x="0px" y="0px"
	 width="150px" height="150px" viewBox="0 0 150 150" style="enable-background:new 0 0 150 150;" xml:space="preserve">
<g>
	<circle style="fill:#2BA8E0;" cx="75.223" cy="75.777" r="68.463"/>
	<path style="fill:#FFFFFF;" d="M102.861,79.92l12.384,25.439c0.504,1.034-0.025,1.881-1.177,1.881H36.376
		c-1.15,0-1.68-0.847-1.177-1.881L47.583,79.92c0.197-0.405,0.727-0.736,1.176-0.736h10.619c0.327,0,0.769,0.205,0.983,0.452
		c0.72,0.833,1.455,1.646,2.186,2.451c0.695,0.765,1.394,1.538,2.087,2.331H52.033c-0.45,0-0.98,0.331-1.177,0.735l-8.204,16.853
		h65.14l-8.203-16.853c-0.197-0.405-0.727-0.735-1.177-0.735h-12.63c0.692-0.793,1.392-1.566,2.087-2.331
		c0.733-0.808,1.471-1.619,2.193-2.452c0.214-0.246,0.655-0.451,0.981-0.451h10.642C102.136,79.184,102.664,79.515,102.861,79.92
		L102.861,79.92z M93.43,62.534c0,13.902-11.572,16.508-17.016,29.867c-0.442,1.086-1.97,1.08-2.412-0.006
		c-4.91-12.044-14.803-15.347-16.696-26.077c-1.863-10.563,5.451-20.91,16.128-21.92C84.295,43.372,93.43,51.886,93.43,62.534
		L93.43,62.534z M84.831,62.534c0-5.313-4.308-9.621-9.622-9.621c-5.315,0-9.622,4.308-9.622,9.621c0,5.314,4.307,9.622,9.622,9.622
		C80.523,72.156,84.831,67.848,84.831,62.534L84.831,62.534z M84.831,62.534"/>
</g>
</svg>
