<?xml version="1.0" encoding="iso-8859-1"?>
<!-- Generator: Adobe Illustrator 16.0.0, SVG Export Plug-In . SVG Version: 6.00 Build 0)  -->
<!DOCTYPE svg PUBLIC "-//W3C//DTD SVG 1.1//EN" "http://www.w3.org/Graphics/SVG/1.1/DTD/svg11.dtd">
<svg version="1.1" id="Layer_1" xmlns="http://www.w3.org/2000/svg" xmlns:xlink="http://www.w3.org/1999/xlink" x="0px" y="0px"
	 width="150px" height="150px" viewBox="0 0 150 150" style="enable-background:new 0 0 150 150;" xml:space="preserve">
<g>
	<circle style="fill:#2BA8E0;" cx="75.084" cy="75.2" r="68.463"/>
	<g>
		<path style="fill:#FFFFFF;" d="M38.373,46.968c24.595,0,49.19,0,73.781,0c-0.158,1.034,0.055,2.435-0.541,3.038
			c-2.522,2.551-5.236,4.915-7.965,7.253c-8.24,7.063-16.59,14.003-24.755,21.15c-3.547,3.105-3.703,3.166-7.253-0.006
			c-4.592-4.107-9.396-7.978-14.065-12.002c-6.178-5.327-12.355-10.656-18.403-16.129C38.477,49.646,38.619,48.09,38.373,46.968z"/>
		<path style="fill:#FFFFFF;" d="M111.402,103.432c-24.092,0-48.185,0-72.275,0c-0.262-0.997-1.055-2.587-0.7-2.905
			c6.709-6.042,13.533-11.958,20.384-17.841c2.271-1.951,4.684-3.73,6.878-5.467c3.445,2.969,6.521,5.619,9.649,8.314
			c3.26-2.855,6.332-5.546,9.434-8.268c0.696,0.429,1.509,0.785,2.147,1.341c8.318,7.221,16.523,14.568,24.969,21.642
			C114.113,102.114,111.954,102.45,111.402,103.432z"/>
		<path style="fill:#FFFFFF;" d="M35.363,51.486c1.764,1.256,3.643,2.384,5.276,3.793c7.641,6.599,15.215,13.275,23.167,20.233
			c-4.557,3.97-8.687,7.63-12.886,11.206c-4.498,3.828-9.049,7.594-13.614,11.341c-0.527,0.432-1.29,0.577-1.943,0.854
			C35.363,83.105,35.363,67.296,35.363,51.486z"/>
		<path style="fill:#FFFFFF;" d="M86.6,75.579c9.63-8.39,18.671-16.267,28.205-24.576c0,16.231,0,31.888,0,48.367
			C105.388,91.427,96.25,83.721,86.6,75.579z"/>
	</g>
</g>
</svg>
