<?xml version="1.0" encoding="iso-8859-1"?>
<!-- Generator: Adobe Illustrator 16.0.0, SVG Export Plug-In . SVG Version: 6.00 Build 0)  -->
<!DOCTYPE svg PUBLIC "-//W3C//DTD SVG 1.1//EN" "http://www.w3.org/Graphics/SVG/1.1/DTD/svg11.dtd">
<svg version="1.1" id="Layer_1" xmlns="http://www.w3.org/2000/svg" xmlns:xlink="http://www.w3.org/1999/xlink" x="0px" y="0px"
	 width="50px" height="50px" viewBox="0 0 50 50" style="enable-background:new 0 0 50 50;" xml:space="preserve">
<path style="fill:#033066;" d="M36.837,45H13.16c-5.121,0-9.271-4.15-9.271-9.272V14.272C3.89,9.151,8.039,5,13.16,5h23.677
	c5.121,0,9.273,4.151,9.273,9.272v21.455C46.11,40.85,41.958,45,36.837,45"/>
<path style="fill:#FCEE21;" d="M34.839,24.918c-2.64,3.519-7.629,4.233-11.149,1.595c-3.519-2.638-4.233-7.628-1.595-11.148
	c2.638-3.519,7.63-4.231,11.147-1.595C36.763,16.408,37.478,21.399,34.839,24.918"/>
<rect x="22.465" y="21.836" transform="matrix(0.8006 0.5992 -0.5992 0.8006 20.9507 -8.4148)" style="fill:#FCEE21;" width="1.309" height="10.876"/>
<path style="fill:#033066;" d="M33.206,23.694c-1.962,2.619-5.676,3.15-8.294,1.188c-2.616-1.963-3.148-5.677-1.185-8.294
	c1.962-2.619,5.675-3.15,8.292-1.188C34.639,17.364,35.169,21.077,33.206,23.694"/>
<rect x="18.022" y="26.614" transform="matrix(0.8004 0.5994 -0.5994 0.8004 23.1125 -5.3149)" style="fill:#FCEE21;" width="3.032" height="10.876"/>
</svg>
