<?xml version="1.0" encoding="iso-8859-1"?>
<!-- Generator: Adobe Illustrator 16.0.0, SVG Export Plug-In . SVG Version: 6.00 Build 0)  -->
<!DOCTYPE svg PUBLIC "-//W3C//DTD SVG 1.1//EN" "http://www.w3.org/Graphics/SVG/1.1/DTD/svg11.dtd">
<svg version="1.1" id="Layer_1" xmlns="http://www.w3.org/2000/svg" xmlns:xlink="http://www.w3.org/1999/xlink" x="0px" y="0px"
	 width="150px" height="150px" viewBox="0 0 150 150" style="enable-background:new 0 0 150 150;" xml:space="preserve">
<g>
	
		<image style="overflow:visible;opacity:0.3;" width="634" height="447" xlink:href="B9476629.png"  transform="matrix(0.24 0 0 0.24 -7.3325 22.0205)">
	</image>
	<polyline style="fill:#989898;" points="126.165,110.683 -0.583,110.683 -0.583,28.77 102.677,28.77 	"/>
	<g>
		<path style="fill:#F3F2F2;" d="M38.794,48.698h2.813c0.683,0,1.039,0.356,1.068,1.068l0.61,13.979h-2.683l-0.501-12.845h-0.415
			l-2.595,10.01c-0.16,0.61-0.538,0.916-1.134,0.916h-2.094c-0.61,0-0.996-0.305-1.155-0.916l-2.64-10.01H29.7l-0.479,12.845H26.56
			l0.567-13.979c0.028-0.712,0.385-1.068,1.068-1.068h2.835c0.596,0,0.967,0.305,1.112,0.916l2.137,8.156
			c0.029,0.102,0.182,0.785,0.458,2.05h0.327c0.16-0.843,0.313-1.534,0.458-2.072l2.138-8.134
			C37.819,49.003,38.197,48.698,38.794,48.698z"/>
		<path style="fill:#F3F2F2;" d="M53.318,48.415c2.325,0,3.943,0.56,4.852,1.679c0.908,1.12,1.363,3.162,1.363,6.128
			s-0.455,5.009-1.363,6.128c-0.908,1.12-2.526,1.679-4.852,1.679c-2.313,0-3.923-0.559-4.831-1.679
			c-0.908-1.119-1.362-3.162-1.362-6.128s0.454-5.008,1.362-6.128C49.396,48.975,51.006,48.415,53.318,48.415z M53.318,50.748
			c-1.266,0-2.134,0.389-2.606,1.167s-0.709,2.213-0.709,4.307c0,2.094,0.236,3.529,0.709,4.307s1.341,1.167,2.606,1.167
			c1.278,0,2.154-0.389,2.627-1.167s0.709-2.213,0.709-4.307c0-2.093-0.236-3.529-0.709-4.307S54.597,50.748,53.318,50.748z"/>
		<path style="fill:#F3F2F2;" d="M74.929,63.746h-2.9l-1.199-4.667c-0.276-0.901-0.858-1.352-1.744-1.352l-2.704-0.022v6.041h-2.705
			V48.698c1.294-0.131,3.119-0.196,5.475-0.196c1.904,0,3.252,0.316,4.045,0.949c0.792,0.632,1.188,1.785,1.188,3.457
			c0,1.163-0.218,2.054-0.654,2.671c-0.437,0.618-1.155,0.992-2.159,1.123v0.109c0.437,0.102,0.844,0.335,1.222,0.698
			s0.64,0.872,0.785,1.526L74.929,63.746z M66.381,55.48h2.704c0.974-0.015,1.639-0.189,1.995-0.523s0.534-0.959,0.534-1.875
			s-0.178-1.534-0.534-1.854s-1.021-0.48-1.995-0.48h-2.704V55.48z"/>
		<path style="fill:#F3F2F2;" d="M88.297,61.543l0.131,2.072c-1.323,0.117-3.532,0.174-6.63,0.174c-0.988,0-1.77-0.254-2.344-0.763
			c-0.574-0.509-0.869-1.207-0.883-2.094v-9.421c0.014-0.886,0.309-1.584,0.883-2.093s1.355-0.764,2.344-0.764
			c3.098,0,5.307,0.059,6.63,0.175l-0.131,2.094h-5.888c-0.393,0-0.673,0.095-0.84,0.283c-0.167,0.189-0.251,0.516-0.251,0.981
			v2.639h6.172v2.094h-6.172v3.358c0,0.465,0.084,0.792,0.251,0.981c0.167,0.189,0.447,0.284,0.84,0.284H88.297z"/>
		<path style="fill:#F3F2F2;" d="M29.569,92.591h-2.727V77.544h2.727V92.591z"/>
		<path style="fill:#F3F2F2;" d="M46.47,77.544v14.044c0,0.669-0.334,1.003-1.003,1.003h-2.159c-0.523,0-0.901-0.276-1.134-0.829
			l-4.23-9.225c-0.51-1.09-0.807-1.839-0.895-2.246h-0.262c0.088,0.611,0.131,1.367,0.131,2.269v10.031h-2.683V78.547
			c0-0.669,0.342-1.003,1.025-1.003h2.115c0.291,0,0.52,0.065,0.688,0.196c0.167,0.131,0.315,0.342,0.446,0.632l4.101,8.963
			c0.043,0.103,0.196,0.444,0.458,1.025s0.458,1.032,0.589,1.352h0.261c-0.072-0.915-0.108-1.729-0.108-2.442v-9.726H46.47z"/>
		<path style="fill:#F3F2F2;" d="M60.58,79.768h-5.452c-0.479,0-0.814,0.096-1.003,0.284c-0.189,0.188-0.283,0.516-0.283,0.981v2.9
			h5.932v2.115h-5.932v6.542h-2.748V80.466c0-0.931,0.29-1.657,0.872-2.181c0.581-0.523,1.366-0.785,2.355-0.785
			c2.995,0,5.132,0.065,6.411,0.196L60.58,79.768z"/>
		<path style="fill:#F3F2F2;" d="M70.022,77.26c2.325,0,3.943,0.561,4.852,1.68s1.363,3.162,1.363,6.128s-0.455,5.009-1.363,6.128
			s-2.526,1.679-4.852,1.679c-2.313,0-3.923-0.56-4.831-1.679s-1.362-3.162-1.362-6.128s0.454-5.009,1.362-6.128
			S67.71,77.26,70.022,77.26z M70.022,79.594c-1.266,0-2.134,0.389-2.606,1.166c-0.473,0.778-0.709,2.214-0.709,4.308
			s0.236,3.529,0.709,4.307c0.473,0.778,1.341,1.167,2.606,1.167c1.278,0,2.154-0.389,2.627-1.167
			c0.473-0.777,0.709-2.213,0.709-4.307s-0.236-3.529-0.709-4.308C72.177,79.982,71.301,79.594,70.022,79.594z"/>
	</g>
	<g>
		
			<image style="overflow:visible;opacity:0.3;" width="231" height="447" xlink:href="B947662F.png"  transform="matrix(0.24 0 0 0.24 89.5596 22.0195)">
		</image>
		<g>
			<g>
				<polyline style="fill:#FCEE21;" points="126.29,110.682 119.81,110.682 96.31,28.77 102.802,28.77 				"/>
			</g>
		</g>
	</g>
</g>
</svg>
