<?xml version="1.0" encoding="iso-8859-1"?>
<!-- Generator: Adobe Illustrator 16.0.0, SVG Export Plug-In . SVG Version: 6.00 Build 0)  -->
<!DOCTYPE svg PUBLIC "-//W3C//DTD SVG 1.1//EN" "http://www.w3.org/Graphics/SVG/1.1/DTD/svg11.dtd">
<svg version="1.1" id="Layer_1" xmlns="http://www.w3.org/2000/svg" xmlns:xlink="http://www.w3.org/1999/xlink" x="0px" y="0px"
	 width="150px" height="150px" viewBox="0 0 150 150" style="enable-background:new 0 0 150 150;" xml:space="preserve">
<path style="fill:#2BA8E0;" d="M75.706,6.904C37.739,6.904,6.96,37.684,6.96,75.651s30.779,68.747,68.746,68.747
	c37.968,0,68.748-30.779,68.748-68.747S113.674,6.904,75.706,6.904 M96.648,63.294c-1.193,4.885-2.806,9.64-4.679,14.295
	c-2.245,5.578-4.607,11.111-7.012,16.622c-1.811,4.152-3.762,8.241-5.659,12.354c-0.679,1.474-1.375,2.939-2.078,4.403
	c-0.479,0.997-0.985,1.981-1.537,3.09c-1.306-2.725-2.55-5.311-3.785-7.9c-0.754-1.58-1.52-3.155-2.243-4.749
	c-1.676-3.702-3.344-7.406-4.981-11.125c-1.043-2.367-2.06-4.745-3.021-7.146c-1.305-3.256-2.588-6.521-3.796-9.813
	c-1.325-3.607-2.535-7.254-3.268-11.039c-0.112-0.577-0.278-1.145-0.418-1.715v-4.102c0.056-0.095,0.152-0.188,0.162-0.288
	c0.219-2.28,0.863-4.451,1.828-6.512c1.462-3.125,3.565-5.766,6.299-7.891c2.703-2.101,5.719-3.501,9.095-4.116
	c0.619-0.111,1.227-0.278,1.84-0.418h4.613c0.075,0.055,0.143,0.143,0.227,0.162c1.57,0.365,3.174,0.624,4.709,1.103
	c3.039,0.949,5.65,2.683,7.866,4.929c1.236,1.253,2.315,2.694,3.288,4.169c1.844,2.792,2.764,5.946,3.069,9.253
	C97.368,59.016,97.165,61.177,96.648,63.294"/>
<path style="fill:#2BA8E0;" d="M75.743,49.249c-5.347,0.004-9.393,4.256-9.557,9.118c-0.193,5.701,4.241,9.843,9.317,9.921
	c5.621,0.085,9.566-4.324,9.723-9.203C85.403,53.546,80.846,49.226,75.743,49.249"/>
</svg>
