<?xml version="1.0" encoding="iso-8859-1"?>
<!-- Generator: Adobe Illustrator 16.0.0, SVG Export Plug-In . SVG Version: 6.00 Build 0)  -->
<!DOCTYPE svg PUBLIC "-//W3C//DTD SVG 1.1//EN" "http://www.w3.org/Graphics/SVG/1.1/DTD/svg11.dtd">
<svg version="1.1" id="Layer_1" xmlns="http://www.w3.org/2000/svg" xmlns:xlink="http://www.w3.org/1999/xlink" x="0px" y="0px"
	 width="150px" height="150px" viewBox="0 0 150 150" style="enable-background:new 0 0 150 150;" xml:space="preserve">
<path style="fill:#FFFFFF;" d="M75.001,6.253C37.032,6.253,6.253,37.031,6.253,75c0,37.967,30.779,68.747,68.748,68.747
	c37.967,0,68.746-30.779,68.746-68.747C143.747,37.031,112.968,6.253,75.001,6.253 M30.526,85.461
	c-4.434-2.502-8.955-4.85-13.443-7.258v-1.734c3.155-5.585,6.326-11.163,9.459-16.759c1.82-3.254,1.793-3.269,5.12-1.461
	c3.466,1.884,6.901,3.826,10.412,5.625c1.751,0.898,2.114,1.841,1.103,3.631c-3.172,5.609-6.25,11.277-9.26,16.978
	C33.032,86.158,32.169,86.387,30.526,85.461 M49.983,97.516c-1.221-0.285-2.24-1.434-2.862-1.863
	c-0.085-3.338,1.393-5.328,3.276-5.291c1.943,0.037,3.002,1.172,3.051,3.066C53.504,95.66,51.703,97.918,49.983,97.516
	 M56.624,101.264c-1.908-0.051-3.049-1.145-3.057-3.1c-0.016-3.107,2.214-6.814,4.09-6.465c1.285,0.238,2.377,1.521,3.098,2.021
	C60.723,97.768,58.556,101.316,56.624,101.264 M61.841,104.74c-0.898-0.379-1.914-2.131-1.742-3.07
	c0.443-2.418,1.289-4.844,2.455-7.004c0.45-0.834,2.262-1.426,3.34-1.279c0.908,0.123,1.654,1.469,2.49,2.293
	c-1.122,3.027-1.877,5.727-3.166,8.143C64.813,104.576,62.729,105.115,61.841,104.74 M68.255,108.334
	c-0.891-0.408-1.834-2.154-1.666-3.131c0.398-2.328,1.207-4.674,2.326-6.758c0.477-0.889,2.21-1.674,3.239-1.531
	c0.98,0.135,1.786,1.537,2.698,2.412c-1.146,3.064-1.91,5.764-3.209,8.178C71.247,108.238,69.126,108.732,68.255,108.334
	 M78.33,107.764c-0.437,0.738-2.12,1.129-3.175,1.008c-1.176-0.135-2.342-0.904-1.568-2.633c0.609-1.359,1.008-2.813,1.611-4.545
	c1.209,1.002,2.501,1.605,2.995,2.605C78.695,105.213,78.853,106.877,78.33,107.764 M101.813,97.957
	c-1.52,1.818-3.172,1.221-4.801-0.07c-5.809-4.611-11.643-9.193-17.488-13.756c-0.74-0.578-1.617-0.984-2.432-1.471
	c-0.174,0.24-0.35,0.479-0.525,0.717c0.645,0.6,1.253,1.244,1.941,1.789c4.757,3.768,9.518,7.531,14.303,11.262
	c1.652,1.287,3.037,2.746,1.511,4.816c-1.64,2.225-3.458,1.266-5.21-0.133c-4.746-3.779-9.525-7.52-14.308-11.256
	c-0.69-0.539-1.471-0.965-2.21-1.445c-0.201,0.242-0.404,0.482-0.607,0.723c0.597,0.596,1.145,1.25,1.799,1.773
	c3.831,3.074,7.666,6.146,11.545,9.158c1.76,1.367,2.704,2.953,1.123,4.875c-1.513,1.842-3.3,1.197-4.787-0.189
	c-2.386-2.225-4.914-4.123-6.962-6.934c-2.046-2.805-6.36-4.029-9.805-5.686c-0.692-0.332-1.945,0.502-3.149,0.861
	c-2.6-2.994-3.588-3.17-7.164-1.254c-3.194-3.461-5.041-3.449-8.343,0.225c-3.328-1.918-6.696-3.857-10.242-5.896
	c3.388-6.096,6.571-11.91,9.888-17.645c0.316-0.545,1.756-1.073,2.204-0.811c3.597,2.121,6.989,1.078,10.503-0.204
	c2.571-0.938,5.264-1.544,7.901-2.297c0.12,0.233,0.239,0.467,0.36,0.702c-0.392,0.442-0.721,0.969-1.184,1.314
	c-2.396,1.778-4.994,3.331-7.176,5.339c-1.104,1.016-2.27,3.025-1.971,4.23c0.361,1.453,2.047,3.014,3.531,3.619
	c1.313,0.535,3.246,0.129,4.709-0.4c3.611-1.314,7.069-3.049,10.681-4.358c0.944-0.343,2.522-0.147,3.308,0.456
	c7.416,5.682,14.719,11.512,22.062,17.287C102.464,94.594,103.345,96.119,101.813,97.957 M104.579,92.717
	c-0.603,0.383-2.164-0.092-2.898-0.666c-7.29-5.674-14.537-11.404-21.699-17.24c-1.636-1.331-2.994-1.607-4.928-0.696
	c-3.557,1.683-7.188,3.243-10.893,4.575c-1.321,0.477-3.093,0.564-4.385,0.088c-2.746-1.014-2.918-3.494-0.584-5.283
	c6.193-4.75,12.477-9.375,20.396-10.809c1.47-0.266,3.21-0.155,4.581,0.396c3.206,1.282,6.337,2.803,9.354,4.482
	c2.465,1.372,4.766,1.851,7.293,0.317c1.77-1.076,2.815-0.503,3.793,1.363c2.932,5.599,6.086,11.082,9.276,16.833
	C110.679,88.41,107.722,90.711,104.579,92.717 M119.123,85.59c-1.593,0.906-2.37,0.393-3.149-1.07
	c-3.07-5.764-6.191-11.502-9.367-17.209c-0.818-1.47-0.774-2.381,0.844-3.225c4.088-2.134,8.117-4.374,12.147-6.614
	c1.168-0.649,2.055-0.849,2.825,0.585c3.271,6.092,6.603,12.154,9.906,18.229c0.181,0.332,0.314,0.691,0.588,1.299
	c-0.549,0.441-1.061,0.984-1.681,1.332C127.206,81.156,123.128,83.309,119.123,85.59"/>
</svg>
