<?xml version="1.0" encoding="iso-8859-1"?>
<!-- Generator: Adobe Illustrator 16.0.0, SVG Export Plug-In . SVG Version: 6.00 Build 0)  -->
<!DOCTYPE svg PUBLIC "-//W3C//DTD SVG 1.1//EN" "http://www.w3.org/Graphics/SVG/1.1/DTD/svg11.dtd">
<svg version="1.1" id="Layer_1" xmlns="http://www.w3.org/2000/svg" xmlns:xlink="http://www.w3.org/1999/xlink" x="0px" y="0px"
	 width="30px" height="30px" viewBox="0 0 30 30" style="enable-background:new 0 0 30 30;" xml:space="preserve">
<g>
	<g>
		<g>
			<g>
				<path style="fill:#062A51;" d="M-22.021,22.17h3.045v-7.625h2.124l0.228-2.553h-2.352c0,0,0-0.954,0-1.454
					c0-0.603,0.121-0.84,0.703-0.84c0.469,0,1.648,0,1.648,0v-2.65c0,0-1.738,0-2.109,0c-2.266,0-3.287,0.999-3.287,2.908
					c0,1.664,0,2.036,0,2.036h-1.584v2.585h1.584V22.17z"/>
			</g>
		</g>
		<g>
			<path style="fill:#062A51;" d="M4.673,6.756c7.087,0,14.175,0,21.261,0c-0.045,0.297,0.016,0.701-0.155,0.875
				c-0.728,0.735-1.509,1.417-2.296,2.09c-2.374,2.035-4.78,4.035-7.133,6.095c-1.022,0.894-1.067,0.912-2.091-0.002
				c-1.323-1.184-2.707-2.299-4.053-3.459c-1.78-1.535-3.561-3.07-5.304-4.647C4.703,7.527,4.744,7.08,4.673,6.756z"/>
			<path style="fill:#062A51;" d="M25.717,23.027c-6.942,0-13.885,0-20.826,0c-0.076-0.287-0.305-0.746-0.202-0.838
				c1.933-1.74,3.899-3.445,5.874-5.141c0.654-0.563,1.35-1.076,1.981-1.576c0.993,0.855,1.88,1.619,2.78,2.396
				c0.94-0.822,1.825-1.598,2.719-2.382c0.201,0.124,0.436,0.226,0.619,0.386c2.397,2.08,4.762,4.198,7.195,6.236
				C26.498,22.646,25.877,22.744,25.717,23.027z"/>
			<path style="fill:#062A51;" d="M3.806,8.058c0.509,0.362,1.05,0.687,1.521,1.093c2.201,1.901,4.385,3.826,6.676,5.831
				c-1.313,1.144-2.504,2.198-3.713,3.229c-1.297,1.104-2.608,2.188-3.924,3.268c-0.152,0.125-0.371,0.166-0.56,0.246
				C3.806,17.17,3.806,12.614,3.806,8.058z"/>
			<path style="fill:#062A51;" d="M18.57,15.001c2.774-2.418,5.38-4.688,8.127-7.082c0,4.677,0,9.188,0,13.938
				C23.984,19.567,21.352,17.347,18.57,15.001z"/>
		</g>
	</g>
	<linearGradient id="SVGID_1_" gradientUnits="userSpaceOnUse" x1="-65" y1="14.8916" x2="-46.6777" y2="14.8916">
		<stop  offset="0" style="stop-color:#1F4680"/>
		<stop  offset="0.9996" style="stop-color:#022649"/>
	</linearGradient>
	<path style="fill:url(#SVGID_1_);" d="M-49.701,5.652c0.152,0.035,0.306,0.065,0.457,0.104c1.08,0.277,1.854,0.931,2.289,1.95
		c0.394,0.922,0.366,1.858-0.068,2.77c-0.359,0.754-0.928,1.307-1.693,1.625c-1.056,0.438-2.092,0.367-3.08-0.226
		c-0.328-0.196-0.607-0.45-0.846-0.747c-0.06-0.075-0.105-0.091-0.193-0.046c-1.393,0.717-2.787,1.431-4.182,2.145
		c-0.428,0.22-0.855,0.44-1.286,0.653c-0.096,0.047-0.114,0.098-0.087,0.194c0.113,0.386,0.164,0.779,0.099,1.18
		c-0.021,0.126-0.044,0.252-0.079,0.375c-0.025,0.092-0.004,0.142,0.084,0.186c0.754,0.381,1.505,0.766,2.257,1.151
		c0.923,0.471,1.845,0.942,2.767,1.414c0.157,0.08,0.318,0.154,0.473,0.24c0.084,0.048,0.137,0.038,0.198-0.035
		c0.427-0.504,0.954-0.856,1.588-1.048c0.654-0.198,1.311-0.193,1.96,0.008c0.737,0.228,1.332,0.667,1.768,1.304
		c0.479,0.695,0.675,1.475,0.559,2.31c-0.186,1.35-0.928,2.296-2.207,2.755c-1.25,0.447-2.405,0.197-3.396-0.695
		c-0.768-0.691-1.111-1.577-1.083-2.604c0.006-0.223,0.069-0.445,0.118-0.666c0.021-0.102,0.011-0.152-0.093-0.205
		c-1.212-0.615-2.421-1.239-3.631-1.859c-0.612-0.313-1.227-0.621-1.836-0.939c-0.11-0.057-0.149,0.006-0.202,0.071
		c-0.467,0.569-1.055,0.963-1.771,1.124c-1.365,0.307-2.533-0.068-3.419-1.15c-0.788-0.961-0.955-2.073-0.543-3.245
		c0.369-1.052,1.115-1.756,2.176-2.072c1.201-0.356,2.292-0.098,3.232,0.744c0.102,0.091,0.203,0.188,0.287,0.295
		c0.066,0.085,0.121,0.088,0.209,0.042c0.572-0.295,1.145-0.586,1.718-0.879c1.01-0.516,2.019-1.032,3.028-1.548
		c0.245-0.125,0.486-0.257,0.734-0.376c0.104-0.049,0.115-0.11,0.089-0.21c-0.206-0.767-0.101-1.506,0.249-2.205
		c0.5-1,1.313-1.603,2.408-1.826c0.091-0.018,0.182-0.039,0.272-0.059C-50.154,5.652-49.928,5.652-49.701,5.652z"/>
</g>
</svg>
