<?xml version="1.0" encoding="iso-8859-1"?>
<!-- Generator: Adobe Illustrator 16.0.0, SVG Export Plug-In . SVG Version: 6.00 Build 0)  -->
<!DOCTYPE svg PUBLIC "-//W3C//DTD SVG 1.1//EN" "http://www.w3.org/Graphics/SVG/1.1/DTD/svg11.dtd">
<svg version="1.1" id="Layer_1" xmlns="http://www.w3.org/2000/svg" xmlns:xlink="http://www.w3.org/1999/xlink" x="0px" y="0px"
	 width="150px" height="150px" viewBox="0 0 150 150" style="enable-background:new 0 0 150 150;" xml:space="preserve">
<g>
	<circle style="fill:#2BA8E0;" cx="75.16" cy="75.2" r="68.463"/>
	<g>
		<path style="fill:#FFFFFF;" d="M78.582,52.715c-0.028,0.086-0.057,0.173-0.084,0.259c-1.378,0-2.123,0.566-2.231,1.695
			c-0.111,1.165,0.604,2.164,1.648,2.359c5.226,0.974,9.354,3.634,12.393,8.013c1.606,2.315,2.531,4.884,3.095,7.616
			c0.194,0.944,1.274,1.631,2.256,1.499c0.998-0.135,1.823-0.987,1.781-1.962c-0.104-2.385-0.899-4.599-1.948-6.697
			c-2.447-4.896-6.149-8.582-11.148-10.836C82.504,53.832,80.507,53.354,78.582,52.715z"/>
		<path style="fill:#FFFFFF;" d="M40.161,58.5c0.117-0.479,0.273-0.952,0.346-1.438c0.328-2.183,1.426-3.929,2.956-5.468
			c1.596-1.604,3.109-3.29,4.724-4.875c1.578-1.55,3.415-2.532,5.744-2.421c1.687,0.08,3.136,0.669,4.31,1.816
			c2.972,2.905,5.903,5.852,8.813,8.819c0.562,0.572,1.041,1.265,1.406,1.979c1.24,2.424,0.668,5.683-1.269,7.622
			c-1.476,1.477-2.935,2.969-4.438,4.417c-0.444,0.427-0.549,0.762-0.236,1.325c1.382,2.486,2.951,4.836,4.904,6.913
			c1.466,1.559,2.897,3.158,4.459,4.617c2.271,2.123,4.667,4.104,7.483,5.506c1.379,0.686,1.356,0.697,2.5-0.417
			c1.488-1.451,2.932-2.958,4.512-4.302c2.452-2.086,6.321-1.854,8.582,0.402c2.998,2.992,6.002,5.979,8.981,8.99
			c1.383,1.396,2.068,3.135,1.958,5.077c-0.104,1.815-0.816,3.442-2.125,4.758c-1.451,1.458-3.001,2.829-4.339,4.384
			c-1.681,1.953-3.701,3.34-6.206,3.719c-1.891,0.285-3.885,0.331-5.778,0.076c-4.293-0.578-8.283-2.212-12.111-4.179
			c-4.208-2.162-8.267-4.603-11.844-7.721c-2.826-2.463-5.626-4.979-8.204-7.694c-2.09-2.202-3.876-4.701-5.714-7.131
			c-2.221-2.936-4.038-6.126-5.608-9.452c-1.658-3.512-2.991-7.136-3.614-10.991c-0.074-0.46-0.128-0.923-0.191-1.385
			C40.161,60.465,40.161,59.483,40.161,58.5z M90.859,106.061c1.765,0.131,3.677-0.73,5.234-2.453
			c0.716-0.791,1.422-1.591,2.174-2.346c0.688-0.689,1.494-1.266,2.137-1.991c1.63-1.845,1.924-2.83,0.242-4.64
			c-2.694-2.898-5.551-5.646-8.381-8.416c-1.218-1.191-2.535-1.107-3.743,0.097c-1.587,1.583-3.133,3.208-4.766,4.741
			c-1.677,1.574-2.467,1.887-4.158,1.15c-4.175-1.817-7.75-4.542-11.032-7.639c-1.726-1.627-3.275-3.445-4.871-5.208
			c-2.24-2.475-4.077-5.232-5.444-8.275c-0.729-1.624-0.638-3.139,0.701-4.395c1.627-1.527,3.236-3.075,4.826-4.642
			c1.6-1.577,1.592-2.92,0.011-4.506c-2.644-2.652-5.283-5.309-7.947-7.941c-1.568-1.549-2.907-1.521-4.442-0.026
			c-1.715,1.67-3.427,3.347-5.064,5.092c-0.58,0.619-1.018,1.409-1.379,2.187c-0.929,1.998-0.67,4.116-0.3,6.166
			c0.648,3.599,2.048,6.972,3.728,10.189c1.358,2.603,2.87,5.161,4.604,7.526c2.159,2.946,4.576,5.707,6.961,8.48
			c0.95,1.104,2.067,2.081,3.189,3.02c2.107,1.761,4.218,3.524,6.426,5.155c3.573,2.64,7.486,4.707,11.571,6.437
			C84.057,105.061,87.061,106.008,90.859,106.061z"/>
		<path style="fill:#FFFFFF;" d="M110.16,71.948c-0.836,1.802-2.488,2.016-3.505,1.048c-0.535-0.509-0.729-1.466-0.896-2.259
			c-0.827-3.949-2.204-7.685-4.469-11.023c-1.402-2.066-2.917-4.095-4.637-5.896c-2.019-2.115-4.375-3.875-6.926-5.362
			c-3.467-2.021-7.184-3.297-11.102-4.083c-1.411-0.283-2.085-1.373-1.799-2.624c0.232-1.016,1.573-1.713,2.79-1.466
			c3.965,0.806,7.777,2.042,11.322,4.024c2.399,1.341,4.628,2.911,6.726,4.703c2.727,2.329,4.998,5.028,6.954,8.001
			c2.519,3.826,4.205,8.011,5.171,12.488c0.111,0.512,0.245,1.019,0.369,1.528C110.16,71.333,110.16,71.641,110.16,71.948z"/>
		<path style="fill:#FFFFFF;" d="M78.582,52.715c1.925,0.638,3.922,1.116,5.761,1.945c4.999,2.254,8.701,5.94,11.148,10.836
			c1.049,2.098,1.845,4.312,1.948,6.697c0.042,0.975-0.783,1.827-1.781,1.962c-0.981,0.133-2.062-0.555-2.256-1.499
			c-0.563-2.731-1.488-5.3-3.095-7.616c-3.038-4.378-7.167-7.039-12.393-8.013c-1.045-0.195-1.76-1.194-1.648-2.359
			c0.108-1.129,0.854-1.695,2.231-1.695C78.525,52.888,78.554,52.802,78.582,52.715z"/>
	</g>
</g>
</svg>
